<?xml version="1.0" encoding="UTF-8" standalone="no"?>
<!-- Created with Inkscape (http://www.inkscape.org/) -->

<svg
   version="1.1"
   id="svg54411"
   xml:space="preserve"
   width="269.20401"
   height="219.65497"
   viewBox="0 0 269.20401 219.65497"
   sodipodi:docname="gain4.svg"
   inkscape:version="1.1.2 (b8e25be833, 2022-02-05)"
   xmlns:inkscape="http://www.inkscape.org/namespaces/inkscape"
   xmlns:sodipodi="http://sodipodi.sourceforge.net/DTD/sodipodi-0.dtd"
   xmlns="http://www.w3.org/2000/svg"
   xmlns:svg="http://www.w3.org/2000/svg"><defs
     id="defs54415" /><sodipodi:namedview
     id="namedview54413"
     pagecolor="#ffffff"
     bordercolor="#666666"
     borderopacity="1.0"
     inkscape:pageshadow="2"
     inkscape:pageopacity="0.0"
     inkscape:pagecheckerboard="0"
     showgrid="false"
     inkscape:zoom="2.2172619"
     inkscape:cx="122.89933"
     inkscape:cy="143.19463"
     inkscape:window-width="1920"
     inkscape:window-height="1010"
     inkscape:window-x="-6"
     inkscape:window-y="-6"
     inkscape:window-maximized="1"
     inkscape:current-layer="g54417" /><g
     id="g54417"
     inkscape:groupmode="layer"
     inkscape:label="gain4"
     transform="matrix(1.3333333,0,0,-1.3333333,-271.58686,1247.769)"><g
       id="g54421"
       transform="translate(230.677,802.742)"><g
         id="g54423"><g
           id="g54425"><path
             d="m 20.40923,10.2046 c 0,5.63593 -4.5687,10.20463 -10.20463,10.20463 C 4.5687,20.40923 0,15.84053 0,10.2046 0,4.5687 4.5687,0 10.2046,0 15.84053,0 20.40923,4.5687 20.40923,10.2046 Z"
             style="fill:#ff0000;fill-opacity:1;fill-rule:nonzero;stroke:#000000;stroke-width:0.3985;stroke-linecap:butt;stroke-linejoin:miter;stroke-miterlimit:10;stroke-dasharray:none;stroke-opacity:1"
             id="path54427" /></g><g
           id="g54429"><path
             d="m 40.81886,10.2046 c 0,5.63593 -4.56869,10.20463 -10.2046,10.20463 -5.63593,0 -10.20462,-4.5687 -10.20462,-10.20463 C 20.40964,4.5687 24.97833,0 30.61426,0 c 5.63591,0 10.2046,4.5687 10.2046,10.2046 z"
             style="fill:#0000ff;fill-opacity:1;fill-rule:nonzero;stroke:#000000;stroke-width:0.3985;stroke-linecap:butt;stroke-linejoin:miter;stroke-miterlimit:10;stroke-dasharray:none;stroke-opacity:1"
             id="path54431" /></g><g
           id="g54433"><path
             d="m 61.22852,10.2046 c 0,5.63593 -4.5687,10.20463 -10.20462,10.20463 -5.63593,0 -10.20463,-4.5687 -10.20463,-10.20463 C 40.81927,4.5687 45.38797,0 51.0239,0 56.65982,0 61.22852,4.5687 61.22852,10.2046 Z"
             style="fill:#ff0000;fill-opacity:1;fill-rule:nonzero;stroke:#000000;stroke-width:0.3985;stroke-linecap:butt;stroke-linejoin:miter;stroke-miterlimit:10;stroke-dasharray:none;stroke-opacity:1"
             id="path54435" /></g><g
           id="g54437"><path
             d="m 81.63814,10.2046 c 0,5.63593 -4.5687,10.20463 -10.20461,10.20463 -5.63593,0 -10.20462,-4.5687 -10.20462,-10.20463 C 61.22891,4.5687 65.7976,0 71.43353,0 77.06944,0 81.63814,4.5687 81.63814,10.2046 Z"
             style="fill:#ff0000;fill-opacity:1;fill-rule:nonzero;stroke:#000000;stroke-width:0.3985;stroke-linecap:butt;stroke-linejoin:miter;stroke-miterlimit:10;stroke-dasharray:none;stroke-opacity:1"
             id="path54439" /></g><g
           id="g54441"><path
             d="m 30.61424,28.06328 c 0,5.63592 -4.56869,10.20462 -10.20462,10.20462 -5.63592,0 -10.20462,-4.5687 -10.20462,-10.20462 0,-5.63591 4.5687,-10.20461 10.20462,-10.20461 5.63593,0 10.20462,4.5687 10.20462,10.20461 z"
             style="fill:#0000ff;fill-opacity:1;fill-rule:nonzero;stroke:#000000;stroke-width:0.3985;stroke-linecap:butt;stroke-linejoin:miter;stroke-miterlimit:10;stroke-dasharray:none;stroke-opacity:1"
             id="path54443" /></g><g
           id="g54445"><path
             d="m 51.02388,28.06328 c 0,5.63592 -4.5687,10.20462 -10.20462,10.20462 -5.63591,0 -10.20461,-4.5687 -10.20461,-10.20462 0,-5.63591 4.5687,-10.20461 10.20461,-10.20461 5.63592,0 10.20462,4.5687 10.20462,10.20461 z"
             style="fill:#0000ff;fill-opacity:1;fill-rule:nonzero;stroke:#000000;stroke-width:0.3985;stroke-linecap:butt;stroke-linejoin:miter;stroke-miterlimit:10;stroke-dasharray:none;stroke-opacity:1"
             id="path54447" /></g><g
           id="g54449"><path
             d="m 71.43314,28.06328 c 0,5.63592 -4.5687,10.20462 -10.20462,10.20462 -5.63593,0 -10.20462,-4.5687 -10.20462,-10.20462 0,-5.63591 4.56869,-10.20461 10.20462,-10.20461 5.63592,0 10.20462,4.5687 10.20462,10.20461 z"
             style="fill:#ff0000;fill-opacity:1;fill-rule:nonzero;stroke:#000000;stroke-width:0.3985;stroke-linecap:butt;stroke-linejoin:miter;stroke-miterlimit:10;stroke-dasharray:none;stroke-opacity:1"
             id="path54451" /></g><g
           id="g54453"><path
             d="m 91.84277,28.06328 c 0,5.63592 -4.56869,10.20462 -10.20462,10.20462 -5.63591,0 -10.2046,-4.5687 -10.2046,-10.20462 0,-5.63591 4.56869,-10.20461 10.2046,-10.20461 5.63593,0 10.20462,4.5687 10.20462,10.20461 z"
             style="fill:#0000ff;fill-opacity:1;fill-rule:nonzero;stroke:#000000;stroke-width:0.3985;stroke-linecap:butt;stroke-linejoin:miter;stroke-miterlimit:10;stroke-dasharray:none;stroke-opacity:1"
             id="path54455" /></g><g
           id="g54457"><path
             d="m 40.81886,45.92157 c 0,5.63591 -4.56869,10.20462 -10.2046,10.20462 -5.63593,0 -10.20462,-4.56871 -10.20462,-10.20462 0,-5.63593 4.56869,-10.20462 10.20462,-10.20462 5.63591,0 10.2046,4.56869 10.2046,10.20462 z"
             style="fill:#ff0000;fill-opacity:1;fill-rule:nonzero;stroke:#000000;stroke-width:0.3985;stroke-linecap:butt;stroke-linejoin:miter;stroke-miterlimit:10;stroke-dasharray:none;stroke-opacity:1"
             id="path54459" /></g><g
           id="g54461"><path
             d="m 61.22852,45.92157 c 0,5.63591 -4.5687,10.20462 -10.20462,10.20462 -5.63593,0 -10.20463,-4.56871 -10.20463,-10.20462 0,-5.63593 4.5687,-10.20462 10.20463,-10.20462 5.63592,0 10.20462,4.56869 10.20462,10.20462 z"
             style="fill:#0000ff;fill-opacity:1;fill-rule:nonzero;stroke:#000000;stroke-width:0.3985;stroke-linecap:butt;stroke-linejoin:miter;stroke-miterlimit:10;stroke-dasharray:none;stroke-opacity:1"
             id="path54463" /></g><g
           id="g54465"><path
             d="M 5.1023,132.66208 0,127.55977 V 0 h 91.84317 v 127.55977 l -5.10269,5.10231"
             style="fill:none;stroke:#000000;stroke-width:1.19553;stroke-linecap:butt;stroke-linejoin:miter;stroke-miterlimit:10;stroke-dasharray:none;stroke-opacity:1"
             id="path54467" /></g><g
           id="g54469"><path
             d="M 127.55977,89.29182 102.0478,63.77986 127.55977,38.26791"
             style="fill:none;stroke:#000000;stroke-width:0.3985;stroke-linecap:butt;stroke-linejoin:miter;stroke-miterlimit:10;stroke-dasharray:none;stroke-opacity:1"
             id="path54471" /></g><g
           id="g54473"><path
             d="m 150.52036,89.29182 c 0,5.63593 -4.5687,10.20462 -10.20461,10.20462 -5.63593,0 -10.20462,-4.56869 -10.20462,-10.20462 0,-5.63592 4.56869,-10.20462 10.20462,-10.20462 5.63591,0 10.20461,4.5687 10.20461,10.20462 z"
             style="fill:#0000ff;fill-opacity:1;fill-rule:nonzero;stroke:#000000;stroke-width:0.3985;stroke-linecap:butt;stroke-linejoin:miter;stroke-miterlimit:10;stroke-dasharray:none;stroke-opacity:1"
             id="path54475" /><g
             id="g54477"><g
               id="g54479"
               transform="matrix(0.9,0,0,0.9,156.835,85.159)"><g
                 id="g54481"><g
                   id="g54483"
                   transform="translate(-387.512,-887.901)"><text
                     transform="matrix(1,0,0,-1,387.512,887.901)"
                     style="font-variant:normal;font-size:14.3462px;font-family:NimbusRomNo9L;-inkscape-font-specification:NimbusRomNo9L-Regu;writing-mode:lr-tb;fill:#000000;fill-opacity:1;fill-rule:nonzero;stroke:none"
                     id="text54487"><tspan
                       x="0 7.1731"
                       y="0"
                       sodipodi:role="line"
                       id="tspan54485"
                       style="font-style:normal;font-variant:normal;font-weight:normal;font-stretch:normal;font-family:'Times New Roman';-inkscape-font-specification:'Times New Roman, '">$4</tspan></text><g
                     id="g54489"
                     transform="translate(387.512,887.901)" /></g></g><g
                 id="g54491"
                 transform="translate(-156.835,-85.159)" /></g></g></g><g
           id="g54493"><path
             d="m 150.52036,38.26791 c 0,5.63593 -4.5687,10.20462 -10.20461,10.20462 -5.63593,0 -10.20462,-4.56869 -10.20462,-10.20462 0,-5.63591 4.56869,-10.20461 10.20462,-10.20461 5.63591,0 10.20461,4.5687 10.20461,10.20461 z"
             style="fill:#ff0000;fill-opacity:1;fill-rule:nonzero;stroke:#000000;stroke-width:0.3985;stroke-linecap:butt;stroke-linejoin:miter;stroke-miterlimit:10;stroke-dasharray:none;stroke-opacity:1"
             id="path54495" /><g
             id="g54497"><g
               id="g54499"
               transform="matrix(0.9,0,0,0.9,156.835,34.136)"><g
                 id="g54501"><g
                   id="g54503"
                   transform="translate(-387.512,-836.878)"><text
                     transform="matrix(1,0,0,-1,387.512,836.878)"
                     style="font-variant:normal;font-size:14.3462px;font-family:NimbusRomNo9L;-inkscape-font-specification:NimbusRomNo9L-Regu;writing-mode:lr-tb;fill:#000000;fill-opacity:1;fill-rule:nonzero;stroke:none"
                     id="text54507"><tspan
                       x="0 4.7772846 11.950384"
                       y="0"
                       sodipodi:role="line"
                       id="tspan54505"
                       style="font-style:normal;font-variant:normal;font-weight:normal;font-stretch:normal;font-family:'Times New Roman';-inkscape-font-specification:'Times New Roman, '">-$4</tspan></text><g
                     id="g54509"
                     transform="translate(387.512,836.878)" /></g></g><g
                 id="g54511"
                 transform="translate(-156.835,-34.136)" /></g></g></g><g
           id="g54513"><path
             d="m -24.23628,-12.75595 c 0,0.70453 -0.57112,1.27565 -1.27565,1.27565 -0.70455,0 -1.27567,-0.57112 -1.27567,-1.27565 0,-0.70455 0.57112,-1.27567 1.27567,-1.27567 0.70453,0 1.27565,0.57112 1.27565,1.27567 z"
             style="fill:#000000;fill-opacity:1;fill-rule:nonzero;stroke:#000000;stroke-width:0.3985;stroke-linecap:butt;stroke-linejoin:miter;stroke-miterlimit:10;stroke-dasharray:none;stroke-opacity:1"
             id="path54515" /><g
             id="g54517"><g
               id="g54519"
               transform="matrix(0.9,0,0,0.9,-16.644,-16.303)"><g
                 id="g54521"><g
                   id="g54523"
                   transform="translate(-214.033,-786.439)"><text
                     transform="matrix(1,0,0,-1,214.033,786.439)"
                     style="font-variant:normal;font-size:14.3462px;font-family:NimbusRomNo9L;-inkscape-font-specification:NimbusRomNo9L-Regu;writing-mode:lr-tb;fill:#000000;fill-opacity:1;fill-rule:nonzero;stroke:none"
                     id="text54527"><tspan
                       x="0 10.75965 15.536935 22.710035 29.883135 41.833519 50.197353 57.370453 61.358696 68.531799 74.901512 83.337074 93.69503 97.683273 108.44292 115.61603 122.78912"
                       y="0"
                       sodipodi:role="line"
                       id="tspan54525"
                       style="font-style:normal;font-variant:normal;font-weight:normal;font-stretch:normal;font-family:'Times New Roman';-inkscape-font-specification:'Times New Roman, '">5(50%)blue:win$4;</tspan></text><g
                     id="g54529"
                     transform="translate(214.033,786.439)" /></g></g><g
                 id="g54531"
                 transform="translate(16.644,16.303)" /></g></g></g><g
           id="g54533"><path
             d="m -24.23628,-25.51193 c 0,0.70453 -0.57112,1.27565 -1.27565,1.27565 -0.70455,0 -1.27567,-0.57112 -1.27567,-1.27565 0,-0.70455 0.57112,-1.27567 1.27567,-1.27567 0.70453,0 1.27565,0.57112 1.27565,1.27567 z"
             style="fill:#000000;fill-opacity:1;fill-rule:nonzero;stroke:#000000;stroke-width:0.3985;stroke-linecap:butt;stroke-linejoin:miter;stroke-miterlimit:10;stroke-dasharray:none;stroke-opacity:1"
             id="path54535" /><g
             id="g54537"><g
               id="g54539"
               transform="matrix(0.9,0,0,0.9,-16.644,-29.059)"><g
                 id="g54541"><g
                   id="g54543"
                   transform="translate(-214.033,-773.683)"><text
                     transform="matrix(1,0,0,-1,214.033,773.683)"
                     style="font-variant:normal;font-size:14.3462px;font-family:NimbusRomNo9L;-inkscape-font-specification:NimbusRomNo9L-Regu;writing-mode:lr-tb;fill:#000000;fill-opacity:1;fill-rule:nonzero;stroke:none"
                     id="text54547"><tspan
                       x="0 10.75965 15.536935 22.710035 29.883135 41.833519 50.197353 54.97464 61.344353 68.517448 76.953018 80.941261 88.114357 93.69503 103.6513 110.82439 117.9975"
                       y="0"
                       sodipodi:role="line"
                       id="tspan54545"
                       style="font-style:normal;font-variant:normal;font-weight:normal;font-stretch:normal;font-family:'Times New Roman';-inkscape-font-specification:'Times New Roman, '">5(50%)red:lose$4.</tspan></text><g
                     id="g54549"
                     transform="translate(214.033,773.683)" /></g></g><g
                 id="g54551"
                 transform="translate(16.644,29.059)" /></g></g></g></g></g><g
       id="g54553"><text
         transform="matrix(1,0,0,-1,303.011,42.112)"
         style="font-variant:normal;font-size:11.9552px;font-family:NimbusRomNo9L;-inkscape-font-specification:NimbusRomNo9L-Regu;writing-mode:lr-tb;fill:#000000;fill-opacity:1;fill-rule:nonzero;stroke:none"
         id="text54557"><tspan
           x="0"
           y="0"
           id="tspan54555">1</tspan></text></g></g></svg>
