<?xml version="1.0" encoding="UTF-8" standalone="no"?>
<!-- Created with Inkscape (http://www.inkscape.org/) -->

<svg
   width="85.650459mm"
   height="120.35684mm"
   viewBox="0 0 85.650459 120.35684"
   version="1.1"
   id="svg363"
   inkscape:version="1.1.2 (b8e25be833, 2022-02-05)"
   sodipodi:docname="urn.svg"
   xmlns:inkscape="http://www.inkscape.org/namespaces/inkscape"
   xmlns:sodipodi="http://sodipodi.sourceforge.net/DTD/sodipodi-0.dtd"
   xmlns="http://www.w3.org/2000/svg"
   xmlns:svg="http://www.w3.org/2000/svg">
  <sodipodi:namedview
     id="namedview365"
     pagecolor="#ffffff"
     bordercolor="#666666"
     borderopacity="1.0"
     inkscape:pageshadow="2"
     inkscape:pageopacity="0.0"
     inkscape:pagecheckerboard="0"
     inkscape:document-units="mm"
     showgrid="false"
     inkscape:zoom="0.64052329"
     inkscape:cx="145.19378"
     inkscape:cy="254.47943"
     inkscape:window-width="3840"
     inkscape:window-height="2036"
     inkscape:window-x="-12"
     inkscape:window-y="-12"
     inkscape:window-maximized="1"
     inkscape:current-layer="layer1" />
  <defs
     id="defs360" />
  <g
     inkscape:label="Layer 1"
     inkscape:groupmode="layer"
     id="layer1"
     transform="translate(-66.639309,-81.299347)">
    <g
       id="g212"
       transform="matrix(1.3720463,0,0,-1.34532,-310.3815,981.3246)">
      <g
         id="g27"
         transform="translate(275.385,580.139)">
        <g
           id="g29">
          <g
             id="g31">
            <path
               d="m 13.60637,6.80318 c 0,3.75734 -3.04585,6.80319 -6.80319,6.80319 C 3.04585,13.60637 0,10.56052 0,6.80318 0,3.04585 3.04585,0 6.80318,0 c 3.75734,0 6.80319,3.04585 6.80319,6.80318 z"
               style="fill:#ff0000;fill-opacity:1;fill-rule:nonzero;stroke:#000000;stroke-width:0.3985;stroke-linecap:butt;stroke-linejoin:miter;stroke-miterlimit:10;stroke-dasharray:none;stroke-opacity:1"
               id="path33" />
          </g>
          <g
             id="g35">
            <path
               d="m 27.21304,6.80318 c 0,3.75734 -3.04585,6.80319 -6.80319,6.80319 -3.75734,0 -6.80319,-3.04585 -6.80319,-6.80319 C 13.60666,3.04585 16.65251,0 20.40985,0 c 3.75734,0 6.80319,3.04585 6.80319,6.80318 z"
               style="fill:#0000ff;fill-opacity:1;fill-rule:nonzero;stroke:#000000;stroke-width:0.3985;stroke-linecap:butt;stroke-linejoin:miter;stroke-miterlimit:10;stroke-dasharray:none;stroke-opacity:1"
               id="path37" />
          </g>
          <g
             id="g39">
            <path
               d="m 40.81969,6.80318 c 0,3.75734 -3.04586,6.80319 -6.80319,6.80319 -3.75733,0 -6.80318,-3.04585 -6.80318,-6.80319 C 27.21332,3.04585 30.25917,0 34.0165,0 c 3.75733,0 6.80319,3.04585 6.80319,6.80318 z"
               style="fill:#ff0000;fill-opacity:1;fill-rule:nonzero;stroke:#000000;stroke-width:0.3985;stroke-linecap:butt;stroke-linejoin:miter;stroke-miterlimit:10;stroke-dasharray:none;stroke-opacity:1"
               id="path41" />
          </g>
          <g
             id="g43">
            <path
               d="m 54.42635,6.80318 c 0,3.75734 -3.04585,6.80319 -6.8032,6.80319 -3.75734,0 -6.80319,-3.04585 -6.80319,-6.80319 C 40.81996,3.04585 43.86581,0 47.62315,0 c 3.75735,0 6.8032,3.04585 6.8032,6.80318 z"
               style="fill:#ff0000;fill-opacity:1;fill-rule:nonzero;stroke:#000000;stroke-width:0.3985;stroke-linecap:butt;stroke-linejoin:miter;stroke-miterlimit:10;stroke-dasharray:none;stroke-opacity:1"
               id="path45" />
          </g>
          <g
             id="g47">
            <path
               d="m 20.40982,18.70917 c 0,3.75733 -3.04585,6.80319 -6.80319,6.80319 -3.75734,0 -6.80319,-3.04586 -6.80319,-6.80319 0,-3.75733 3.04585,-6.80318 6.80319,-6.80318 3.75734,0 6.80319,3.04585 6.80319,6.80318 z"
               style="fill:#0000ff;fill-opacity:1;fill-rule:nonzero;stroke:#000000;stroke-width:0.3985;stroke-linecap:butt;stroke-linejoin:miter;stroke-miterlimit:10;stroke-dasharray:none;stroke-opacity:1"
               id="path49" />
          </g>
          <g
             id="g51">
            <path
               d="m 34.01648,18.70917 c 0,3.75733 -3.04585,6.80319 -6.80318,6.80319 -3.75734,0 -6.80319,-3.04586 -6.80319,-6.80319 0,-3.75733 3.04585,-6.80318 6.80319,-6.80318 3.75733,0 6.80318,3.04585 6.80318,6.80318 z"
               style="fill:#0000ff;fill-opacity:1;fill-rule:nonzero;stroke:#000000;stroke-width:0.3985;stroke-linecap:butt;stroke-linejoin:miter;stroke-miterlimit:10;stroke-dasharray:none;stroke-opacity:1"
               id="path53" />
          </g>
          <g
             id="g55">
            <path
               d="m 47.6229,18.70917 c 0,3.75733 -3.04586,6.80319 -6.8032,6.80319 -3.75734,0 -6.80319,-3.04586 -6.80319,-6.80319 0,-3.75733 3.04585,-6.80318 6.80319,-6.80318 3.75734,0 6.8032,3.04585 6.8032,6.80318 z"
               style="fill:#ff0000;fill-opacity:1;fill-rule:nonzero;stroke:#000000;stroke-width:0.3985;stroke-linecap:butt;stroke-linejoin:miter;stroke-miterlimit:10;stroke-dasharray:none;stroke-opacity:1"
               id="path57" />
          </g>
          <g
             id="g59">
            <path
               d="m 61.22955,18.70917 c 0,3.75733 -3.04585,6.80319 -6.80319,6.80319 -3.75734,0 -6.80319,-3.04586 -6.80319,-6.80319 0,-3.75733 3.04585,-6.80318 6.80319,-6.80318 3.75734,0 6.80319,3.04585 6.80319,6.80318 z"
               style="fill:#0000ff;fill-opacity:1;fill-rule:nonzero;stroke:#000000;stroke-width:0.3985;stroke-linecap:butt;stroke-linejoin:miter;stroke-miterlimit:10;stroke-dasharray:none;stroke-opacity:1"
               id="path61" />
          </g>
          <g
             id="g63">
            <path
               d="m 27.21304,30.6149 c 0,3.75732 -3.04585,6.80318 -6.80319,6.80318 -3.75734,0 -6.80319,-3.04586 -6.80319,-6.80318 0,-3.75734 3.04585,-6.8032 6.80319,-6.8032 3.75734,0 6.80319,3.04586 6.80319,6.8032 z"
               style="fill:#ff0000;fill-opacity:1;fill-rule:nonzero;stroke:#000000;stroke-width:0.3985;stroke-linecap:butt;stroke-linejoin:miter;stroke-miterlimit:10;stroke-dasharray:none;stroke-opacity:1"
               id="path65" />
          </g>
          <g
             id="g67">
            <path
               d="m 40.81969,30.6149 c 0,3.75732 -3.04586,6.80318 -6.80319,6.80318 -3.75733,0 -6.80318,-3.04586 -6.80318,-6.80318 0,-3.75734 3.04585,-6.8032 6.80318,-6.8032 3.75733,0 6.80319,3.04586 6.80319,6.8032 z"
               style="fill:#0000ff;fill-opacity:1;fill-rule:nonzero;stroke:#000000;stroke-width:0.3985;stroke-linecap:butt;stroke-linejoin:miter;stroke-miterlimit:10;stroke-dasharray:none;stroke-opacity:1"
               id="path69" />
          </g>
          <g
             id="g71">
            <path
               d="M 3.40158,88.44289 0,85.04128 V 0 h 61.22981 v 85.04128 l -3.40185,3.40161"
               style="fill:none;stroke:#000000;stroke-width:1.19553;stroke-linecap:butt;stroke-linejoin:miter;stroke-miterlimit:10;stroke-dasharray:none;stroke-opacity:1"
               id="path73" />
          </g>
        </g>
      </g>
    </g>
  </g>
</svg>
